<svg version="1.1" viewBox="0 0 775 1289" xmlns="http://www.w3.org/2000/svg"><path d="m218 52-21.9 4.84-8.13 6.16c-2.93 14.8-5.28 30.5-10.2 45-2.65 7.74-8.25 14.8-9.7 23-3 16.9-0.325 37.8 4.85 54 4.56 14.3 11.8 34.9 21.2 46.6 6.27 7.74 24.4 20 25.5 30.1 0.546 5.19-7.69 14.6-10.9 18.3-9.36 10.8-18.3 24.1-24.5 37-1.55 3.21-0.124 7.69-2.2 10.5-2.76 3.77-10.2 0.145-10.7 6.58-1.19 14.3 14.1 33.1 20.3 44.9 23.8 44.9 72.2 74.1 117 94.2 14.3 6.36 29.6 12.9 45 16.3 27.4 6.13 52.6 8.81 80 1.5 8.74-2.33 17.7-4.9 26-8.58 4.17-1.86 8.48-5.9 13-6.62 5.81-0.918 12.1 4.55 19 3.87 10.1-0.998 19.9-9.19 30-7.66-8.32 13.1-5.47 27.7-6.28 42-0.169 2.98-2.88 5.02-3.15 8-1.28 14.1-3.23 28.7-4.67 43-0.889 8.84-5.22 28.5-15.9 28 2.97 13.9-12.3 20.6-20.7 30-29 32.5-69.8 47.9-113 47.9-25.4 0.00999-55.6 4.9-80-3.79-48.6-17.3-83-76.5-90.6-125-2.16-13.8-1.13-27.3-1.09-41 0.065-19.8 1.31-40.6 6.1-60 1.84-7.46 9.55-13.2 9.17-21-0.566-11.5-8.51-15-18.6-16.4-9.96-1.37-9.09 10.1-11.3 16.4-6.81 19.4-6.84 39.5-11.8 59-3.43 13.5-0.862 27.3-0.268 41 1.78 41.2 18.3 86.2 45.1 118 10.3 12.2 20.1 26.5 35.3 33v2c-3.68 0.962-7.81 2.65-8.35 7.01-0.431 3.46 2.22 6.52 2.23 9.99 0.039 14.8 2.23 30.1 3.83 45 4.2 39-7.39 76.1-14.1 114-3.67 20.7-6.44 42.2-8.41 63-0.394 4.15 1.87 7.88 1.43 12-3.23 30.4-2.45 60.3-3.38 91-0.252 8.25-0.931 17.8-1.88 26-0.505 4.32-2.75 8.63-1.63 13 3.87 15 22.1 11.8 27.7 23 3.96 7.85-0.29 14.2-0.188 22 0.193 14.6 1.39 29.3 1.72 44 0.416 18.2 0.478 35.9-1.16 54-0.827 9.16-5.95 22.1-4.42 31 0.682 3.94 7.55 11.9 10.8 14.3 6.4 4.61 15.4 0.48 21.8-1.49 11-3.38 23.6-3.51 35-4.6 26.2-2.5 53.8 1.25 80 2.74 21.3 1.2 43.6 0.0689 65-0.871 50.9-2.25 101-1.04 152-1.04 12.8 0 42.2 8.78 48-6 3.38-8.6-1.67-14.5-5.53-22-6.93-13.5-12.5-27.7-17.4-42-9.1-26.6-10.5-51.1-11.1-79-0.308-14.5-1.81-28.5 0.0156-43 8.11 2.95 19.7 8.39 26.3-1.06 6.31-9.01 2.5-29.3 2.1-39.9-1.16-31 1.58-62.1 1.63-93 0.045-28 1.78-55.2-0.184-83-3.32-47-12-93.2-15.7-140-2.24-28.5 7.96-69-11.8-92.9-11.7-14.2-35.7-12.9-52.3-12.9-3.86-1e-3 -8.22 1.82-12 1.02-7.45-1.59-3.83-10.5-8.24-15-4.4-4.55-10.2-2.27-15.8-3.15 7.19-24.3 16.5-49.8 19.9-75 1-7.41 2.99-23.1-6.87-26 3.09-5.64 9.82-8.93 16-10l-6 10 10 6h1c6.66-5.65 12.7-11 21-14.2 6.01-2.36 14-1.94 17.9-7.95 7.61-11.9 0.396-20.9-2.39-31.8-6.15-24-12.6-46-22-69-2.88-7.04-12.6-19.2-10.7-27 1.24-5.16 6.9-9.3 10.4-13 9.65-10.4 19.5-20.7 29.7-30.4 19.8-18.8 33.2-49.1 29.9-76.6-1.05-8.83-5.58-16.9-8.75-25-3.41-8.75-4.97-18.8-12.5-25.4-5.71-5.01-24-3.8-27.5 3.48-2.09 4.29 0.948 10.6 1.93 15-5.49 0.931-13.6 2.25-17.6 6.53-3.54 3.84-3.27 13.3-5.77 18.5-6.31 12.9-27.6 33.3-43.7 31.4-9.84-1.19-18.9-22.5-25.2-29.4-13.6-15.1-29.5-23.2-46.8-33.1-6.78-3.87-14.1-10.1-22-10.9-1.52-13.7-16.4-10-26-10.8-5.73-0.469-12.3-3.16-18-2.48-4.33 0.513-8.01 3.78-12 5.35-11.4 4.49-37 10.9-42 22.9-6.79-2.14-17.5 4.42-23 8.53-3.04 2.26-6.08 6.19-10.3 4.93-9.84-2.94-18.6-12.2-25.4-19.4-26.3-27.5-27.7-60.9-39.9-95.1-2.16-6.05-8.64-7.69-11.4-13zm-6 55c7.77 23 15.2 46.2 31.3 65 9.52 11.2 24.3 18.1 33 29.3 3.75 4.84 3.8 11.6 7.63 16.7 7.27 9.6 22.6 3.65 27.1 16 3.53-0.854 8.8-0.0854 7.34 5.02-1.39 4.85-6.81 8.83-10.1 12.4-9.87 10.8-30.3 22.1-45.3 13.7-39-21.9-73-76-62.7-122 2.22-9.9-0.207-32.4 11.7-36zm184 62.6c1.05 0.0268 2.02 0.127 2.89 0.316 8.41 1.82 18.2 9.37 26.1 13.1 5.31 2.52 16.4 6.04 20 10.5 3.58 4.38 3.86 11.6 7.09 16.4 3.12 4.69 10.1 5.68 12.4 10.2 4.05 7.86 5.18 19.3 8.03 27.9 9.54 28.7 16.2 57.9 26.9 86 6.36 16.7-1.83 41.9 18.6 50.1 5.83 2.34 9.78-2.58 14-5.73 5.9-4.44 14-8.2 21-10.4 2.01 14.9 9.24 29 11.1 44 0.603 4.8-1.49 14.4-8.81 11.4-3.45-1.43-2.7-8.32-4.88-11.2-7.23-9.45-20-17.6-32.3-12.6-14.3 5.82-8.68 28.2 0.908 35 2.71 1.93 5.9 1.65 9 2.36l-7 7c-6.79-3.4-11.5-10.8-19-12.6-23.5-5.46-37.1 20.2-60 23.6 4.53-9.21 16.8-11.1 14.7-24-2.2-13.3-29.6-31.9-29.7-9-5.45-0.709-10.3-4.21-16-2.44-12.8 3.98-15.5 21.4-7.57 31.3 6.75 8.34 14.7 9.17 24.6 9.17-2.98 4.87-11.6 5.96-17 6.86-15.8 2.61-30.3 1.34-46-2.07-43.9-9.54-85-29.3-119-58.5-13-11.1-29-23.2-36.3-39.3-4.58-10.1 5.1-8.02 5.55-16 0.682-12.2-10.5-18.5 1.91-29.8 8.52-7.74 20.2 4.23 21.8-12.2 7.72 3.68 10.9 11.2 17 16.8 16.2 14.6 30.1 26.5 50 35.9 15 7.14 34.5 14.5 50.7 18.2 12.3 2.8 26.7 0.4 37.3 8.08 3.24-5.72 9.33-4.68 15-3 3.91-8.71 10.6-15 12.2-25 1.12-6.84-2.74-15.5-2.13-23 0.643-8 2.82-15.9 2.83-24 0.036-22.1-6.15-45.8-11.9-67-1.84-6.8-1.31-14.5-4.5-21-8.74-17.9-25.8-31.6-33.5-50 5.83-2.13 16.7-5.57 24-5.38zm-56 18.8c8.24-0.322 16 18.7 21.2 24 18.4 18.6 20.2 38.1 25 62.6 4.36 22.1 9.5 46.9 0.0137 68.9-2.88 6.69-7.24-0.2-11.3-0.744-9.75-1.31-26.9 4.65-33-6.19-5.81 1.26-9.53-1.21-15-2.65-18.6-4.9-33.4-16.5-46.6-30.2-4.63-4.82-12-8.34-13.4-15.2 8.32 3.93 12.8 8.33 23 6.86 17.6-2.55 39.2-29 44.7-44.9 1.98-5.66-0.32-13 0.551-19 0.702-4.8 5.57-8.21 5.56-13-8e-3 -4.17-1.89-11.6-5.01-14.4-2.36-2.15-7.13-3.14-8.02-6.57-1.2-4.61 8.61-9.42 12.2-9.56zm259 7.58c7.57 2.51 5.55 16.9 4.25 23-4.86 22.9-23.7 35.8-35.2 55-3.35 5.56-7.93 10.4-11.1 16-1.01 1.78-1.65 5.66-4.09 6.08-3.75 0.637-5.8-7.64-6.98-10.1-3.8-7.87-16.2-24.1-7.74-31.5 7.91-6.88 18.4-9.54 26.8-15.5 9.92-6.99 16.9-17.4 23.8-27 3.86-5.4 9.17-9.19 10.3-16zm-83 98c8.38 4.76 15.2 22.3 11 31h-1c-5.9-9.64-7.93-20-10-31zm14 39 4 6c-3.86-0.669-4.72-2.21-4-6zm48.4 274c4.13 0.0632 7.84 0.683 10.4 2.27 7.71 4.75 5.57 17.3 6.33 24.7 2.32 22.5 0.503 45.3 3.18 68 6.5 55.1 12.7 110 13.6 165 0.381 22.4-4.85 44.8-4.62 67 0.189 19 0.77 37.8-0.791 57-0.39 4.79 2.97 12.4-1.07 16.4-3.64 3.59-13.6 1.24-18.6 3.97-4.57 2.48-6.99 8.38-12.7 9.01-5.39 0.59-5.01-12.6-5.62-16.4-2.81-17.5-6.35-36.2-6.44-54-0.176-36.4-0.511-72.7-2.11-109-1.46-33.2-7.58-66-9.99-99-1.26-17.3 0.127-45.9-22.9-47.4-4.08-0.261-10.2-0.832-13.6 2.21-3.36 3.08 1.93 19.6 2.77 24.1 4.33 23.2 6.67 47.5 9.44 71 5.21 44.2 2.1 90.9 3.42 135 0.866 28.9 4.95 57.9 8.11 87 1.68 15.5 0.617 37.3 7.79 50.9 4 7.62 17.1 13.3 25 9.16 4.07-2.1 6.74-6.07 10-9.11 0 32.9-0.473 73.2 12.5 104 3.96 9.45 6.53 19.4 10.1 29 1.09 2.93 3.73 8.47 1.39 11.4-2.64 3.28-14.1 0.769-18 0.879-18.4 0.52-36.6-0.26-55-0.26-41 0-82 4.82-123 4.82-24.9 0-50.1-2.69-75-3.78-16.1-0.7-32 0.931-48 0.961-3.92 0.01-13.2 2.7-16-0.74-5.1-6.29-0.0273-26.6-0.0273-34.3 0-31.8-2.21-63.3-2.98-95-0.077-3.13-1.01-8.76 1.01-11.4 3.54-4.64 21.6-4.26 27-3.76 5.94 0.57 16.1-1.59 17.3-8.85 0.745-4.52-2.39-10.4-2.99-15-0.987-7.6 0.276-16.3 0.801-24 3.33-48.6 4.84-97.6 11.2-146 2.7-20.5 5.98-41.3 12.8-61 2.42-6.98 12.1-18.1 11.3-25-2.63-23.2-25.3-14.6-38.4-8 3.93 11.1 0.42 17.9-1.98 29-3.55 16.4-7.92 32.6-10.8 49-4.9 28.2-5 56.5-7.42 85-1.03 12-3.9 24-4.74 36-1.3 18.7 0.0742 36.6-5.09 55l-22-9.37-9.01-2.23-1.99-18.4 0.521-48-1.43-17 10.2-86 11.9-47 4.74-14-1.88-20-4.02-84c14.6 2.5 28.1 8.23 43 9.83 12.5 1.33 24.6-0.675 37-0.822 37.1-0.441 80.1-1.84 114-18.8 21.5-10.7 38.9-34.9 56.9-50.8 4.54-4 7.78-9.98 13.2-13 7.96-4.37 18.3-1.69 26.9-3.27 5.32-0.979 14.5-2.95 22.6-3.12 0.605-0.0125 1.2-0.0149 1.79-0.00586zm-313 428c0.922 0.0305 2.2 0.443 3.91 1.39 1.7 0.94 3.28 1.93 5.02 2.79-4.28 14.1-15.4-4.39-8.94-4.18z"/><path d="m419 218c-19.1 5.02-3.63 18.9 3.38 26.8 5.27 5.98 9.59 16.3 19.6 13.4 4.01-1.16 13.3-4.78 14.8-9 1.86-5.25-3.48-8.13-5.92-11.9-6.81-10.5-16.9-23.2-31.8-19.3m24.3 60.4c-2.99 2-1.78 6.04-3.34 8.84-2 3.59-5.67 4.5-5.88 9.13-0.568 13 18.7 35.7 32.7 25.4 12.4-9.08 1.2-32.9-7.83-39-4.32-2.91-9.99-8.18-15.7-4.39z"/><path d="m482 325c1.22-2.08 3.04-4.1 4.01-6.29 2.01-4.56-2.78-10.2-7.71-8.67-8.06 2.44-1.17 13.4 3.7 15m-252 5.82c-9.6-0.117-9.96 12.4-9.16 19.2 1.57 13.3 9.52 28.2 25.2 27.9 20.3-0.435 24.3-16.4 14-31.8-6.31-9.47-18.8-15.1-30-15.2z"/><path d="m456 351c-22.2 5.99-6.55 24.8 1.1 34.4 5.32 6.68 9.97 15.5 19.9 12.7 12.7-3.62 19.1-21.5 12.9-32.7-6.67-12.1-20.6-18-33.9-14.4m-144 44c-10.8 2.27-13.4 12.9-9.52 22.4 4.97 12.1 14.4 22.5 28.5 19.6 7.35-1.47 20.3-9.41 18.2-18.6-0.881-3.9-5.33-6.7-8.19-9.13-7.64-6.49-17.9-16.6-29-14.3z"/><path d="m547 429 3-4-3 4m-112 28v1h3l-3-1m24.3 8.67 0.334 0.666-0.334-0.666z" style="fill:#fff"/><path d="m372 523c-5.07-0.505-9.81-2.68-15-2.17-4.38 0.43-11.3-0.302-14.2 3.65-4.44 6.06 6.11 25.4 12.3 27.7 8.19 3.03 24.2-2.97 24-13.2-0.138-5.18-5.58-10.9-7.06-16m-129 8.54c-18.6 4.21-4.48 35.3 12 31.9 3.17-0.638 6.15-1.99 9-3.48 23.1-12.1-4.41-32.2-21-28.5z"/></svg>
